<?xml version="1.0" encoding="UTF-8" standalone="no"?>
<svg
   xmlns:dc="http://purl.org/dc/elements/1.1/"
   xmlns:cc="http://creativecommons.org/ns#"
   xmlns:rdf="http://www.w3.org/1999/02/22-rdf-syntax-ns#"
   xmlns:svg="http://www.w3.org/2000/svg"
   xmlns="http://www.w3.org/2000/svg"
   xmlns:sodipodi="http://sodipodi.sourceforge.net/DTD/sodipodi-0.dtd"
   xmlns:inkscape="http://www.inkscape.org/namespaces/inkscape"
   sodipodi:docname="bishop-white.svg"
   inkscape:version="1.0 (4035a4f, 2020-05-01)"
   id="svg250"
   version="1.1"
   viewBox="0 0 5.8383497 6.2632798"
   height="6.2632799mm"
   width="5.8383498mm">
  <defs
     id="defs244" />
  <sodipodi:namedview
     inkscape:window-maximized="0"
     inkscape:window-y="23"
     inkscape:window-x="0"
     inkscape:window-height="855"
     inkscape:window-width="1252"
     fit-margin-bottom="0"
     fit-margin-right="0"
     fit-margin-left="0"
     fit-margin-top="0"
     showgrid="false"
     inkscape:document-rotation="0"
     inkscape:current-layer="layer1"
     inkscape:document-units="mm"
     inkscape:cy="21.514594"
     inkscape:cx="24.042771"
     inkscape:zoom="22.778681"
     inkscape:pageshadow="2"
     inkscape:pageopacity="0.0"
     borderopacity="1.0"
     bordercolor="#666666"
     pagecolor="#ffffff"
     id="base" />
  <metadata
     id="metadata247">
    <rdf:RDF>
      <cc:Work
         rdf:about="">
        <dc:format>image/svg+xml</dc:format>
        <dc:type
           rdf:resource="http://purl.org/dc/dcmitype/StillImage" />
        <dc:title></dc:title>
      </cc:Work>
    </rdf:RDF>
  </metadata>
  <g
     transform="translate(-55.478502,-159.36381)"
     id="layer1"
     inkscape:groupmode="layer"
     inkscape:label="Layer 1">
    <path
       id="use96"
       d="m 58.397652,162.96966 c -0.42142,0 -0.74974,-0.0175 -0.98496,-0.0539 0.042,0.084 0.063,0.15681 0.063,0.21701 0,0.0903 -0.0175,0.16522 -0.0539,0.22542 0.17431,-0.0539 0.49983,-0.0812 0.97586,-0.0812 0.47603,0 0.80155,0.0273 0.97586,0.0812 -0.0357,-0.0602 -0.0539,-0.13511 -0.0539,-0.22542 0,-0.0728 0.0182,-0.1449 0.0539,-0.21701 -0.28281,0.0364 -0.60833,0.0539 -0.97586,0.0539 m 0,-3.2713 c -0.12671,0 -0.21351,0.0574 -0.26181,0.17151 -0.0119,0.0301 -0.0182,0.0602 -0.0182,0.0903 0,0.13301 0.0665,0.21981 0.19882,0.26251 0.0238,0.006 0.0511,0.009 0.0812,0.009 0.13861,0 0.22892,-0.0637 0.27092,-0.18972 0.006,-0.0245 0.009,-0.0518 0.009,-0.0819 0,-0.12041 -0.0602,-0.20161 -0.18061,-0.24362 -0.0357,-0.0119 -0.0693,-0.0182 -0.0994,-0.0182 m 0,3.84114 c -0.22892,0 -0.52434,0.021 -0.88556,0.063 -0.1022,0.0119 -0.16241,0.0693 -0.18061,0.17151 0,0.0728 0.16521,0.11761 0.49703,0.1358 -0.0301,-0.006 -0.0182,-0.009 0.0357,-0.009 0.0546,0 0.23242,0 0.53344,0 0.70494,0 1.05776,-0.042 1.05776,-0.1267 0,-0.13861 -0.17501,-0.21352 -0.52433,-0.22542 -0.0266,0 -0.23592,0 -0.26252,0 -0.0777,0 -0.14421,-0.003 -0.19881,-0.009 -0.004,0 -0.0287,0 -0.0721,0 m -0.009,-0.83165 c 0.67485,0 1.08787,-0.063 1.23838,-0.18971 0.10221,-0.0784 0.17781,-0.28632 0.22612,-0.62374 -0.0301,-0.30102 -0.22612,-0.59014 -0.58734,-0.86735 -0.33742,-0.26532 -0.63284,-0.41303 -0.88625,-0.44313 -0.23452,0.0301 -0.52084,0.17781 -0.85826,0.44313 -0.35562,0.27722 -0.54813,0.56633 -0.57823,0.86735 0.042,0.31362 0.1085,0.51243 0.19881,0.59644 0.0238,0.0245 0.0511,0.0455 0.0812,0.063 0.15051,0.10291 0.53904,0.15401 1.16557,0.15401 m -0.15331,-0.44313 v -0.39762 h -0.30731 v -0.35212 h 0.30731 v -0.38853 h 0.32553 v 0.38853 h 0.30661 v 0.35212 h -0.30661 v 0.39762 h -0.32553 m 0.14422,1.84392 c -0.0539,0 -0.21352,0.10571 -0.47883,0.31642 -0.18692,0.12671 -0.48794,0.20161 -0.90376,0.22611 -0.30102,0 -0.54183,0.0147 -0.72315,0.0448 -0.19251,0.042 -0.28911,0.1239 -0.28911,0.24431 0.0182,0.12041 0.0812,0.18061 0.18971,0.18061 0.0483,-0.007 0.43122,-0.0651 0.47953,-0.0721 0.31292,0 0.64124,-0.0427 0.98496,-0.12671 0.39132,-0.10221 0.64474,-0.26532 0.75885,-0.48793 0.16311,0.31922 0.58453,0.51173 1.26567,0.57823 0,0 0.0777,0.0119 0.23452,0.0364 0.15681,0 0.23521,0 0.23521,0 0.049,0.007 0.43893,0.0651 0.48793,0.0721 0.10851,0 0.17151,-0.0602 0.18972,-0.18061 0,-0.12041 -0.0966,-0.20231 -0.28912,-0.24432 -0.0966,-0.007 -0.87016,-0.0651 -0.96676,-0.0721 -0.30732,-0.0245 -0.60274,-0.14491 -0.88626,-0.36192 -0.126,-0.10221 -0.22261,-0.15331 -0.28911,-0.15331 m 0.0182,0.78615 c -0.23452,0.23521 -0.59014,0.37942 -1.06617,0.43402 -0.19321,0.0182 -0.53063,0.0602 -1.01226,0.12671 -0.12671,0.0238 -0.19881,0.0812 -0.21701,0.17151 -0.11411,-0.0301 -0.28282,-0.21701 -0.50614,-0.56073 -0.0539,-0.084 -0.0931,-0.14141 -0.1176,-0.17151 0.19881,-0.37943 0.44593,-0.56914 0.74134,-0.56914 0.0532,0.003 0.47953,0.0245 0.53344,0.0273 0.24641,0 0.53623,-0.0574 0.86735,-0.17221 -0.42773,-0.0539 -0.64194,-0.18341 -0.64194,-0.38852 0.0182,-0.0686 0.16311,-0.61814 0.18131,-0.68674 0,-0.006 0,-0.0119 0,-0.0182 -0.36192,-0.39762 -0.54253,-0.77074 -0.54253,-1.12077 0,-0.39762 0.19601,-0.75884 0.58733,-1.08436 0.34373,-0.28912 0.59644,-0.44243 0.75885,-0.46063 -0.13231,-0.16311 -0.19881,-0.33182 -0.19881,-0.50613 0,-0.27722 0.13861,-0.45223 0.41582,-0.52433 0.0665,-0.0182 0.13861,-0.0273 0.21702,-0.0273 0.29542,0 0.48793,0.1113 0.57824,0.33461 0.003,0.0126 0.0182,0.0756 0.0455,0.18972 0,0.0161 0,0.0252 0,0.0273 0,0.18691 -0.063,0.35562 -0.18972,0.50613 0.16242,0.0182 0.41863,0.17431 0.76795,0.46973 0.38573,0.31922 0.57824,0.67764 0.57824,1.07526 0,0.33743 -0.18061,0.71125 -0.54183,1.12077 0,0.0847 0.0301,0.20512 0.0903,0.36193 0.0602,0.19251 0.0903,0.30732 0.0903,0.34302 0,0.20511 -0.21422,0.33462 -0.64194,0.38852 0.32552,0.11481 0.61463,0.17221 0.86805,0.17221 0.0532,-0.003 0.47953,-0.0245 0.53273,-0.0273 0.29542,0 0.54254,0.18971 0.74135,0.56914 -0.0308,0.0469 -0.27652,0.42282 -0.30732,0.47043 -0.10221,0.13231 -0.20791,0.21981 -0.31642,0.26181 -0.0238,-0.12041 -0.19881,-0.19601 -0.52363,-0.22611 0.042,0 -0.0483,-0.009 -0.27162,-0.0273 -0.75325,-0.0721 -1.25308,-0.23172 -1.50019,-0.47883"
       style="fill:#000000;fill-opacity:1;stroke-width:0.0700042" />
  </g>
</svg>
