<?xml version="1.0" encoding="UTF-8" standalone="no"?>
<svg
   xmlns:dc="http://purl.org/dc/elements/1.1/"
   xmlns:cc="http://creativecommons.org/ns#"
   xmlns:rdf="http://www.w3.org/1999/02/22-rdf-syntax-ns#"
   xmlns:svg="http://www.w3.org/2000/svg"
   xmlns="http://www.w3.org/2000/svg"
   xmlns:sodipodi="http://sodipodi.sourceforge.net/DTD/sodipodi-0.dtd"
   xmlns:inkscape="http://www.inkscape.org/namespaces/inkscape"
   sodipodi:docname="bishop-black.svg"
   inkscape:version="1.0 (4035a4f, 2020-05-01)"
   id="svg250"
   version="1.1"
   viewBox="0 0 5.8565602 6.2898898"
   height="6.2898898mm"
   width="5.8565602mm">
  <defs
     id="defs244" />
  <sodipodi:namedview
     inkscape:window-maximized="0"
     inkscape:window-y="23"
     inkscape:window-x="0"
     inkscape:window-height="855"
     inkscape:window-width="1252"
     fit-margin-bottom="0"
     fit-margin-right="0"
     fit-margin-left="0"
     fit-margin-top="0"
     showgrid="false"
     inkscape:document-rotation="0"
     inkscape:current-layer="layer1"
     inkscape:document-units="mm"
     inkscape:cy="264.30435"
     inkscape:cx="-285.66609"
     inkscape:zoom="0.35"
     inkscape:pageshadow="2"
     inkscape:pageopacity="0.0"
     borderopacity="1.0"
     bordercolor="#666666"
     pagecolor="#ffffff"
     id="base" />
  <metadata
     id="metadata247">
    <rdf:RDF>
      <cc:Work
         rdf:about="">
        <dc:format>image/svg+xml</dc:format>
        <dc:type
           rdf:resource="http://purl.org/dc/dcmitype/StillImage" />
        <dc:title></dc:title>
      </cc:Work>
    </rdf:RDF>
  </metadata>
  <g
     transform="translate(-181.41582,-78.236141)"
     id="layer1"
     inkscape:groupmode="layer"
     inkscape:label="Layer 1">
    <path
       id="use48"
       d="m 183.90097,82.167581 c -0.30732,0 -0.46062,0.0483 -0.46062,0.144208 0,0.0847 0.1358,0.135808 0.40672,0.154009 0.0497,0 0.44733,0 0.49703,0 0.60274,0 0.90376,-0.0511 0.90376,-0.154009 0,-0.09591 -0.15331,-0.144208 -0.46063,-0.144208 -0.0595,0 -0.35422,0 -0.88626,0 m 0,-0.560737 c -0.26461,0 -0.41232,0.0301 -0.44242,0.09101 -0.0119,0.01191 -0.0182,0.0301 -0.0182,0.0539 0,0.0665 0.063,0.105706 0.18971,0.117607 0.15681,0.0182 0.39483,0.0273 0.71405,0.0273 0.31922,0 0.56003,-0.0091 0.72314,-0.0273 0.12041,-0.01191 0.18061,-0.0511 0.18061,-0.117607 0,-0.09661 -0.15331,-0.14491 -0.46062,-0.14491 -0.0595,0 -0.35423,0 -0.88626,0 m 1.68151,0.389223 c 0.1085,0.417227 0.1687,0.648941 0.18061,0.695844 0,0.210714 -0.21422,0.333923 -0.64194,0.370324 0.31361,0.120407 0.60553,0.180612 0.87715,0.180612 0.0357,0 0.21351,-0.0091 0.53273,-0.0273 0.26532,0 0.48233,0.138607 0.65104,0.415825 0.0238,0.0483 0.0539,0.102907 0.0903,0.16311 -0.0329,0.0497 -0.29262,0.447328 -0.32552,0.49703 -0.0966,0.120409 -0.19881,0.198813 -0.30732,0.234516 -0.0238,-0.126007 -0.21701,-0.204414 -0.57824,-0.234516 -0.0217,-0.0021 -0.19531,-0.0168 -0.21701,-0.0182 -0.74135,-0.0602 -1.24118,-0.219813 -1.50019,-0.47883 -0.23522,0.247116 -0.59364,0.388525 -1.07527,0.424228 -0.10851,0.01259 -0.24992,0.0301 -0.42492,0.0546 -0.43963,0.0364 -0.69585,0.09941 -0.76795,0.189711 -0.0126,0.0182 -0.0217,0.0392 -0.0273,0.06301 -0.15682,-0.06581 -0.30452,-0.216313 -0.44313,-0.451528 -0.0539,-0.09661 -0.11761,-0.189711 -0.18971,-0.280019 0.16311,-0.301717 0.33742,-0.48233 0.52433,-0.542533 0.0665,-0.02381 0.13861,-0.0364 0.21701,-0.0364 0,0 0.17781,0.0091 0.53273,0.0273 0.27722,0 0.56984,-0.06021 0.87716,-0.180613 -0.42773,-0.0364 -0.64194,-0.15961 -0.64194,-0.370321 0,-0.0182 0.0483,-0.172212 0.14491,-0.46133 0.0301,-0.09591 0.0448,-0.162409 0.0448,-0.198813 -0.36752,-0.445927 -0.55093,-0.840053 -0.55093,-1.183773 0,-0.397624 0.19531,-0.758846 0.58733,-1.084368 0.34933,-0.295418 0.60274,-0.452226 0.75885,-0.470429 -0.13231,-0.162409 -0.19881,-0.331118 -0.19881,-0.505431 0,-0.283517 0.14211,-0.458528 0.42492,-0.524332 0.0665,-0.0182 0.13581,-0.0273 0.20792,-0.0273 0.30101,0 0.49703,0.111306 0.58733,0.33462 0.003,0.0126 0.0182,0.0756 0.0455,0.189713 0,0.01611 0,0.02521 0,0.0273 0,0.168711 -0.0665,0.336722 -0.19882,0.505431 0.11411,0.0308 0.28562,0.123909 0.51524,0.280717 0.55373,0.385726 0.83095,0.809951 0.83095,1.27408 0,0.349322 -0.18061,0.732245 -0.54183,1.148072 m -1.07597,-0.840753 v -0.415827 h 0.31642 v -0.34372 h -0.31642 v -0.388525 h -0.32482 v 0.388525 h -0.31642 v 0.34372 h 0.31642 v 0.415827 h 0.32482 m -0.16241,-2.548858 c -0.12041,0 -0.19602,0.0546 -0.22612,0.16311 -7.9e-4,0.0049 -0.008,0.0483 -0.009,0.0539 0,0.114805 0.0602,0.186912 0.18131,0.217014 0.0175,0.0063 0.0357,0.0091 0.0539,0.0091 0.1505,0 0.22611,-0.0756 0.22611,-0.226115 0,-0.144209 -0.0756,-0.217014 -0.22611,-0.217014"
       style="fill:#000000;fill-opacity:1;stroke-width:0.0700042" />
  </g>
</svg>
