<?xml version="1.0" encoding="UTF-8" standalone="no"?>
<svg
   xmlns:dc="http://purl.org/dc/elements/1.1/"
   xmlns:cc="http://creativecommons.org/ns#"
   xmlns:rdf="http://www.w3.org/1999/02/22-rdf-syntax-ns#"
   xmlns:svg="http://www.w3.org/2000/svg"
   xmlns="http://www.w3.org/2000/svg"
   xmlns:sodipodi="http://sodipodi.sourceforge.net/DTD/sodipodi-0.dtd"
   xmlns:inkscape="http://www.inkscape.org/namespaces/inkscape"
   sodipodi:docname="1.svg"
   inkscape:version="1.0 (4035a4f, 2020-05-01)"
   id="svg197"
   version="1.1"
   viewBox="0 0 5.4862418 5.9286599"
   height="5.9286599mm"
   width="5.4862418mm">
  <defs
     id="defs191" />
  <sodipodi:namedview
     inkscape:window-maximized="0"
     inkscape:window-y="23"
     inkscape:window-x="0"
     inkscape:window-height="855"
     inkscape:window-width="1252"
     fit-margin-bottom="0"
     fit-margin-right="0"
     fit-margin-left="0"
     fit-margin-top="0"
     showgrid="false"
     inkscape:document-rotation="0"
     inkscape:current-layer="layer1"
     inkscape:document-units="mm"
     inkscape:cy="242.63234"
     inkscape:cx="41.796266"
     inkscape:zoom="0.35"
     inkscape:pageshadow="2"
     inkscape:pageopacity="0.0"
     borderopacity="1.0"
     bordercolor="#666666"
     pagecolor="#ffffff"
     id="base" />
  <metadata
     id="metadata194">
    <rdf:RDF>
      <cc:Work
         rdf:about="">
        <dc:format>image/svg+xml</dc:format>
        <dc:type
           rdf:resource="http://purl.org/dc/dcmitype/StillImage" />
        <dc:title></dc:title>
      </cc:Work>
    </rdf:RDF>
  </metadata>
  <g
     transform="translate(-94.774738,-83.970194)"
     id="layer1"
     inkscape:groupmode="layer"
     inkscape:label="Layer 1">
    <path
       id="use24"
       d="m 97.748525,87.639822 c 0,0.108507 -0.0756,0.16241 -0.226114,0.16241 -0.168711,0 -0.253416,-0.0539 -0.253416,-0.16241 0,-0.499831 -0.16521,-0.906556 -0.497031,-1.220176 -0.294718,-0.265316 -0.581036,-0.397624 -0.858253,-0.397624 -0.409525,0 -0.665741,0.16241 -0.768647,0.48793 -0.0021,0.0161 -0.014,0.09801 -0.0357,0.244315 0,0.0105 0,0.0168 0,0.0182 0,0.240815 0.177811,0.574735 0.532733,1.003162 0.09661,0.107807 0.177811,0.192512 0.244315,0.252715 0.09661,0.07841 0.256216,0.117608 0.47883,0.117608 0.235215,0 0.614638,-0.0455 1.138971,-0.135809 0.529933,0.09031 0.912856,0.135809 1.148071,0.135809 0.228914,0 0.388524,-0.0392 0.47883,-0.117608 0.252715,-0.222613 0.463428,-0.49423 0.632139,-0.81345 0.09661,-0.180611 0.144909,-0.32832 0.144909,-0.442427 0,-0.380124 -0.171511,-0.618139 -0.515232,-0.714045 -0.09031,-0.0245 -0.186912,-0.0364 -0.289118,-0.0364 -0.277217,0 -0.560035,0.135808 -0.849853,0.406725 -0.336721,0.301019 -0.505431,0.704944 -0.505431,1.211075 m 1.960821,-0.867353 c 0,0.240815 -0.16591,0.523632 -0.497031,0.849152 -0.0154,0.0133 -0.0938,0.07981 -0.235214,0.198813 -0.0539,0.0329 -0.084,0.0504 -0.09031,0.0546 -0.114107,0.0175 -0.234514,0.0266 -0.361222,0.0266 -0.373823,0 -0.560735,-0.0749 -0.560735,-0.225414 0.0126,-0.464129 0.15121,-0.826051 0.415826,-1.085068 0.228914,-0.228914 0.464129,-0.343021 0.704944,-0.343021 0.307319,0 0.503331,0.111307 0.587336,0.333921 0.0028,0.0133 0.0147,0.0763 0.0364,0.190412 m -0.858253,2.295442 c 0,-0.15681 -0.443127,-0.235215 -1.328682,-0.235215 -0.240815,0 -0.455028,0.0091 -0.64194,0.0273 -0.0217,0.0014 -0.195312,0.0161 -0.217013,0.0182 -0.32482,0.042 -0.487931,0.102206 -0.487931,0.180611 0,0.09031 0.08121,0.135108 0.244315,0.135108 0.07281,-0.0056 0.437528,-0.0357 1.093468,-0.09031 0.650341,0.0546 1.012263,0.0847 1.084368,0.09031 0.16871,0 0.253415,-0.042 0.253415,-0.126008 m 0.506132,0.217014 c -0.0126,0.409525 -0.627239,0.613938 -1.843915,0.613938 -1.204774,0 -1.816612,-0.204413 -1.834813,-0.613938 -0.0056,-0.385724 -0.063,-0.729445 -0.171511,-1.030464 -0.0665,-0.16311 -0.193212,-0.371023 -0.379424,-0.623739 -0.235214,-0.319219 -0.352821,-0.602737 -0.352821,-0.849852 0,-0.385024 0.16591,-0.683243 0.49703,-0.894656 0.186912,-0.120408 0.394825,-0.180611 0.623739,-0.180611 0.313619,0 0.611838,0.114807 0.894655,0.343721 0,-0.277217 0.0273,-0.466929 0.08121,-0.569835 0.0427,-0.114108 0.180611,-0.252716 0.415825,-0.415126 0,-0.014 0,-0.0833 0,-0.207913 l -0.370324,-0.226106 v -0.32552 h 0.333921 l 0.108507,-0.334621 h 0.307319 l 0.117607,0.334621 h 0.32552 v 0.32552 l -0.361222,0.226114 c 0,0.124608 0,0.193912 0,0.207913 0.228914,0.16871 0.370323,0.312919 0.424226,0.433327 0.0063,0.0266 0.0574,0.235915 0.0637,0.262516 0.0056,0.07211 0.0119,0.168711 0.0175,0.289118 0.283518,-0.228914 0.575436,-0.343721 0.877155,-0.343721 0.403225,0 0.716844,0.154009 0.939454,0.461329 0.12671,0.180611 0.19042,0.385024 0.19042,0.613938 0,0.247115 -0.11761,0.533433 -0.352826,0.858953 -0.021,0.0287 -0.186912,0.260416 -0.207913,0.289118 -0.222614,0.337421 -0.337421,0.788949 -0.343021,1.355984 m -4.039952,-2.512456 c 0,-0.253416 0.126008,-0.415826 0.379424,-0.48863 0.0721,-0.0238 0.147709,-0.0357 0.226114,-0.0357 0.252715,0 0.49353,0.114107 0.723144,0.343021 0.259017,0.265316 0.394125,0.626539 0.406026,1.085067 0.0063,0.132308 -0.132309,0.207213 -0.415126,0.225414 -0.0427,0 -0.08751,0 -0.135808,0 -0.120408,0 -0.244316,-0.0091 -0.370323,-0.0266 -0.198813,-0.09661 -0.397625,-0.286318 -0.596437,-0.569836 -0.144909,-0.210713 -0.217014,-0.388524 -0.217014,-0.532733"
       style="fill:#000000;fill-opacity:1;stroke-width:0.0700042" />
  </g>
</svg>
