<?xml version="1.0" encoding="UTF-8" standalone="no"?>
<svg
   xmlns:dc="http://purl.org/dc/elements/1.1/"
   xmlns:cc="http://creativecommons.org/ns#"
   xmlns:rdf="http://www.w3.org/1999/02/22-rdf-syntax-ns#"
   xmlns:svg="http://www.w3.org/2000/svg"
   xmlns="http://www.w3.org/2000/svg"
   xmlns:sodipodi="http://sodipodi.sourceforge.net/DTD/sodipodi-0.dtd"
   xmlns:inkscape="http://www.inkscape.org/namespaces/inkscape"
   sodipodi:docname="pawn-black.svg"
   inkscape:version="1.0 (4035a4f, 2020-05-01)"
   id="svg250"
   version="1.1"
   viewBox="0 0 5.4764309 5.9469699"
   height="5.94697mm"
   width="5.4764309mm">
  <defs
     id="defs244" />
  <sodipodi:namedview
     inkscape:window-maximized="0"
     inkscape:window-y="23"
     inkscape:window-x="0"
     inkscape:window-height="855"
     inkscape:window-width="1252"
     fit-margin-bottom="0"
     fit-margin-right="0"
     fit-margin-left="0"
     fit-margin-top="0"
     showgrid="false"
     inkscape:document-rotation="0"
     inkscape:current-layer="layer1"
     inkscape:document-units="mm"
     inkscape:cy="16.980181"
     inkscape:cx="8.3178805"
     inkscape:zoom="22.778681"
     inkscape:pageshadow="2"
     inkscape:pageopacity="0.0"
     borderopacity="1.0"
     bordercolor="#666666"
     pagecolor="#ffffff"
     id="base" />
  <metadata
     id="metadata247">
    <rdf:RDF>
      <cc:Work
         rdf:about="">
        <dc:format>image/svg+xml</dc:format>
        <dc:type
           rdf:resource="http://purl.org/dc/dcmitype/StillImage" />
        <dc:title></dc:title>
      </cc:Work>
    </rdf:RDF>
  </metadata>
  <g
     transform="translate(-59.639046,-160.56354)"
     id="layer1"
     inkscape:groupmode="layer"
     inkscape:label="Layer 1">
    <path
       id="use72"
       d="m 62.377616,166.51051 c -1.199173,0 -1.807511,-0.20162 -1.825715,-0.60554 -0.0301,-0.55443 -0.123907,-0.97306 -0.280016,-1.25588 -0.0665,-0.1148 -0.15961,-0.25341 -0.280718,-0.41582 -0.204411,-0.27162 -0.319219,-0.50053 -0.343021,-0.68744 -0.0063,-0.0476 -0.0091,-0.0994 -0.0091,-0.15332 0,-0.37942 0.15961,-0.67763 0.47883,-0.89465 0.07841,-0.0483 0.15961,-0.0875 0.244316,-0.11761 0.31922,-0.11411 0.63564,-0.0966 0.948558,0.0546 0.114808,0.0539 0.228914,0.12601 0.343722,0.21632 7.94e-4,0.001 0.0077,0.008 0.0091,0.009 0,-0.12601 0.0056,-0.26182 0.0182,-0.40673 0,-0.042 0.02101,-0.0994 0.063,-0.17151 0.09661,-0.1568 0.210714,-0.28001 0.343723,-0.37032 0.02381,-0.0119 0.0476,-0.0273 0.0721,-0.0455 0,-0.014 0,-0.0868 0,-0.21701 l -0.370324,-0.21632 v -0.32552 h 0.33392 l 0.117607,-0.34372 h 0.270918 l 0.117607,0.34372 h 0.334621 v 0.32552 l -0.370324,0.21632 c 0,0.1302 0,0.20301 0,0.21701 0.31292,0.19881 0.47253,0.39762 0.47883,0.59644 0.01191,0.1204 0.0182,0.25341 0.0182,0.39762 7.94e-4,-7.9e-4 0.0077,-0.008 0.0084,-0.009 0.380124,-0.31922 0.777751,-0.42143 1.193575,-0.30732 0.108506,0.0301 0.210714,0.0756 0.307319,0.13581 0.33742,0.20511 0.508931,0.50893 0.514533,0.91285 0,0.24082 -0.120407,0.52713 -0.361223,0.85826 -0.198813,0.27721 -0.322019,0.47953 -0.370324,0.60553 -0.102904,0.27162 -0.16311,0.62094 -0.181311,1.04867 -0.01191,0.40392 -0.620239,0.60554 -1.825014,0.60554 m 0,-3.04589 c 0.156811,-0.24922 0.244317,-0.38783 0.261819,-0.41583 0.042,-0.0903 0.0756,-0.17431 0.0994,-0.25271 0.01191,-0.042 0.0182,-0.12951 0.0182,-0.26182 0,-0.35562 -0.123907,-0.53343 -0.370321,-0.53343 -0.259718,0 -0.389224,0.17781 -0.389224,0.53343 0,0.13231 0.0063,0.21981 0.0182,0.26182 0.0483,0.16241 0.150508,0.35562 0.307318,0.57823 0.0364,0.042 0.0546,0.0721 0.0546,0.0903 m 2.41305,-0.0182 c 0,-0.27091 -0.09031,-0.47883 -0.271616,-0.62303 -0.150511,-0.12671 -0.328322,-0.18972 -0.532733,-0.18972 -0.259017,0 -0.539734,0.13231 -0.840754,0.39763 -0.355621,0.30732 -0.557233,0.72244 -0.605538,1.24678 0,0.042 0.111307,0.0903 0.334621,0.1449 0.259016,0.0483 0.698643,0.0721 1.319583,0.0721 0.0406,-0.0539 0.365421,-0.48793 0.406725,-0.54253 0.126008,-0.19252 0.189712,-0.36123 0.189712,-0.50614 m -2.41305,1.22018 c -0.150509,0.0665 -0.609037,0.12391 -1.374185,0.17221 -0.114107,0.006 -0.207913,0.0119 -0.280017,0.0175 0.0602,0.22892 0.09941,0.48233 0.117607,0.75955 0.415825,-0.13231 0.927558,-0.19881 1.536595,-0.19881 0.620238,0 1.13267,0.0665 1.535895,0.19881 0.0182,-0.30102 0.0574,-0.55443 0.117608,-0.75955 -0.13371,-0.0105 -1.203376,-0.0973 -1.337083,-0.1078 -0.114808,-0.0182 -0.220514,-0.0455 -0.31642,-0.0819 m -2.413051,-1.22017 c 0,0.18691 0.147709,0.47043 0.442429,0.84985 0.07281,0.0903 0.123907,0.15681 0.154008,0.19881 0.01611,0 0.14631,0 0.162412,0 0.620937,0 1.072465,-0.042 1.355984,-0.12671 0.09031,-0.0238 0.135107,-0.0539 0.135107,-0.0903 -0.0483,-0.52433 -0.249915,-0.93946 -0.605536,-1.24678 -0.294719,-0.26532 -0.575437,-0.39762 -0.840052,-0.39762 -0.08471,0 -0.175011,0.0175 -0.271618,0.0539 -0.240814,0.0602 -0.403225,0.21981 -0.487929,0.47883 -0.0028,0.0168 -0.0182,0.098 -0.0448,0.24431 v 0.0357 m 2.413051,2.73857 c 0.566335,0 0.957659,-0.0357 1.174673,-0.10851 0.0539,-0.0182 0.08121,-0.0392 0.08121,-0.063 0,-0.15681 -0.415827,-0.23522 -1.246778,-0.23522 -0.319921,0 -0.630039,0.021 -0.931058,0.0637 -0.223314,0.0357 -0.334621,0.0931 -0.334621,0.17152 0,0.0903 0.355621,0.1477 1.066866,0.17151 0.0721,0 0.135109,0 0.189712,0"
       style="fill:#000000;fill-opacity:1;stroke-width:0.0700042" />
  </g>
</svg>
