<?xml version="1.0" encoding="UTF-8" standalone="no"?>
<svg
   xmlns:dc="http://purl.org/dc/elements/1.1/"
   xmlns:cc="http://creativecommons.org/ns#"
   xmlns:rdf="http://www.w3.org/1999/02/22-rdf-syntax-ns#"
   xmlns:svg="http://www.w3.org/2000/svg"
   xmlns="http://www.w3.org/2000/svg"
   xmlns:sodipodi="http://sodipodi.sourceforge.net/DTD/sodipodi-0.dtd"
   xmlns:inkscape="http://www.inkscape.org/namespaces/inkscape"
   sodipodi:docname="knight-white.svg"
   inkscape:version="1.0 (4035a4f, 2020-05-01)"
   id="svg250"
   version="1.1"
   viewBox="0 0 5.3952197 5.34133"
   height="5.3413301mm"
   width="5.3952198mm">
  <defs
     id="defs244" />
  <sodipodi:namedview
     inkscape:window-maximized="0"
     inkscape:window-y="23"
     inkscape:window-x="0"
     inkscape:window-height="855"
     inkscape:window-width="1252"
     fit-margin-bottom="0"
     fit-margin-right="0"
     fit-margin-left="0"
     fit-margin-top="0"
     showgrid="false"
     inkscape:document-rotation="0"
     inkscape:current-layer="layer1"
     inkscape:document-units="mm"
     inkscape:cy="10.975117"
     inkscape:cx="21.858465"
     inkscape:zoom="22.778681"
     inkscape:pageshadow="2"
     inkscape:pageopacity="0.0"
     borderopacity="1.0"
     bordercolor="#666666"
     pagecolor="#ffffff"
     id="base" />
  <metadata
     id="metadata247">
    <rdf:RDF>
      <cc:Work
         rdf:about="">
        <dc:format>image/svg+xml</dc:format>
        <dc:type
           rdf:resource="http://purl.org/dc/dcmitype/StillImage" />
        <dc:title></dc:title>
      </cc:Work>
    </rdf:RDF>
  </metadata>
  <g
     transform="translate(-56.056433,-162.15238)"
     id="layer1"
     inkscape:groupmode="layer"
     inkscape:label="Layer 1">
    <path
       id="use104"
       d="m 56.706783,165.36068 c 0.0847,0 0.1267,0.0574 0.1267,0.17151 0,0.15121 -0.0749,0.22611 -0.22611,0.22611 -0.0602,0 -0.0903,-0.0483 -0.0903,-0.14421 0,-0.16871 0.0637,-0.25341 0.18972,-0.25341 m 0.65104,-1.10257 c -0.0847,0 -0.12671,-0.0511 -0.12671,-0.15331 0,-0.16311 0.0966,-0.29542 0.28912,-0.39763 0.0847,-0.0427 0.16311,-0.0637 0.23521,-0.0637 0.12671,0 0.19601,0.0427 0.20791,0.12671 0,0.13861 -0.1085,0.27092 -0.32552,0.39762 -0.1085,0.0602 -0.20161,0.0903 -0.28001,0.0903 m 0.0721,-1.69901 c 0.0245,0.0847 0.0364,0.14141 0.0364,0.17151 0,0.0182 -0.009,0.0665 -0.0273,0.14491 0.0966,0 0.22892,-0.0483 0.39763,-0.14491 -0.16242,-0.084 -0.29822,-0.1414 -0.40673,-0.17151 m -1.07527,3.1089 c 0.0364,0.14491 0.13231,0.24991 0.28912,0.31642 0.0602,0.0238 0.11761,0.0364 0.17151,0.0364 0.002,0 0.0168,0 0.0182,0 0.0119,0 0.0784,-0.0364 0.19881,-0.10851 0.0364,-0.0245 0.0665,-0.0364 0.0903,-0.0364 0.004,0 0.0329,0 0.0364,0 0.0301,0 0.0448,0.0182 0.0448,0.0546 -0.005,0.0168 -0.0483,0.15401 -0.0539,0.17152 0,0.0539 0.042,0.0812 0.12671,0.0812 0.0119,0 0.0875,-0.10571 0.22542,-0.31642 0.26531,-0.40953 0.64194,-0.71965 1.12987,-0.93106 0.0483,-0.32482 0.16871,-0.61113 0.36192,-0.85825 0.0476,-0.0665 0.0959,-0.0994 0.14421,-0.0994 0.0546,0 0.0812,0.0392 0.0812,0.11761 0,0.0182 -0.0539,0.18971 -0.16241,0.51523 -0.042,0.13861 -0.063,0.24082 -0.063,0.30732 0,0.0175 0.006,0.0567 0.0175,0.11691 0,0.42843 -0.18061,0.87715 -0.54183,1.34688 -0.24082,0.32552 -0.37383,0.58454 -0.39763,0.77705 0.29822,0 2.68397,0 2.98219,0 0.0245,-0.27722 0.0364,-0.48163 0.0364,-0.61464 0,-1.24118 -0.38853,-2.23174 -1.16627,-2.97308 -0.23452,-0.21702 -0.42423,-0.32552 -0.56914,-0.32552 -0.0539,0 -0.48793,0 -0.54253,0 -0.0476,-0.0238 -0.0959,-0.14421 -0.14421,-0.36122 -0.0364,-0.17502 -0.0812,-0.28353 -0.13581,-0.32553 -0.0721,0.21702 -0.29542,0.38573 -0.66854,0.50613 -0.19881,0.0602 -0.33742,0.12041 -0.41583,0.18062 -0.0665,0.21141 -0.26181,0.63913 -0.58733,1.28317 -0.31922,0.63914 -0.48793,1.01857 -0.50613,1.13897 m 5.06061,1.82572 c -2.27164,0 -3.53382,0 -3.78654,0 0.0245,-0.41583 0.18062,-0.81345 0.47043,-1.19288 0.22262,-0.30101 0.35493,-0.48513 0.39763,-0.55163 0.084,-0.13231 0.13511,-0.29192 0.15331,-0.47883 -0.39133,0.16871 -0.69584,0.40953 -0.91286,0.72314 -0.0126,0.021 -0.1141,0.18692 -0.12671,0.20792 -0.0903,0.14421 -0.147,0.22611 -0.17151,0.24361 -0.0364,0.0301 -0.0749,0.0455 -0.11761,0.0455 -0.1869,0 -0.31291,-0.063 -0.37942,-0.18971 -0.0119,-0.0182 -0.0182,-0.0392 -0.0182,-0.0637 -0.0602,0.0308 -0.12041,0.0455 -0.18061,0.0455 -0.28912,0 -0.51803,-0.18061 -0.68675,-0.54253 0.0483,-0.26462 0.30102,-0.87645 0.75885,-1.83411 0.0483,-0.0903 0.0847,-0.16311 0.10851,-0.21702 0.18061,-0.40392 0.27161,-0.70774 0.27161,-0.91286 0,-0.0301 -0.0182,-0.19881 -0.0546,-0.50612 0.007,0 0.0651,0 0.0721,0 0.32552,0 0.63564,0.1022 0.93105,0.30731 0.16241,-0.28352 0.29822,-0.42492 0.40673,-0.42492 0.19251,0.1022 0.32552,0.24711 0.39762,0.43402 0.01,0.0294 0.0896,0.26812 0.0994,0.29822 0.0602,-0.0119 0.11131,-0.0182 0.15401,-0.0182 0.48163,0 0.95766,0.30732 1.42739,0.92196 0.54883,0.71684 0.82255,1.699 0.82255,2.94648 0,0.28282 -0.0119,0.53623 -0.0364,0.75884"
       style="fill:#000000;fill-opacity:1;stroke-width:0.0700042" />
  </g>
</svg>
