<?xml version="1.0" encoding="UTF-8" standalone="no"?>
<svg
   xmlns:dc="http://purl.org/dc/elements/1.1/"
   xmlns:cc="http://creativecommons.org/ns#"
   xmlns:rdf="http://www.w3.org/1999/02/22-rdf-syntax-ns#"
   xmlns:svg="http://www.w3.org/2000/svg"
   xmlns="http://www.w3.org/2000/svg"
   xmlns:sodipodi="http://sodipodi.sourceforge.net/DTD/sodipodi-0.dtd"
   xmlns:inkscape="http://www.inkscape.org/namespaces/inkscape"
   sodipodi:docname="knight-black.svg"
   inkscape:version="1.0 (4035a4f, 2020-05-01)"
   id="svg250"
   version="1.1"
   viewBox="0 0 5.4316301 5.3231301"
   height="5.3231301mm"
   width="5.4316301mm">
  <defs
     id="defs244" />
  <sodipodi:namedview
     inkscape:window-maximized="0"
     inkscape:window-y="23"
     inkscape:window-x="0"
     inkscape:window-height="855"
     inkscape:window-width="1252"
     fit-margin-bottom="0"
     fit-margin-right="0"
     fit-margin-left="0"
     fit-margin-top="0"
     showgrid="false"
     inkscape:document-rotation="0"
     inkscape:current-layer="layer1"
     inkscape:document-units="mm"
     inkscape:cy="-37.064781"
     inkscape:cx="81.741265"
     inkscape:zoom="0.35"
     inkscape:pageshadow="2"
     inkscape:pageopacity="0.0"
     borderopacity="1.0"
     bordercolor="#666666"
     pagecolor="#ffffff"
     id="base" />
  <metadata
     id="metadata247">
    <rdf:RDF>
      <cc:Work
         rdf:about="">
        <dc:format>image/svg+xml</dc:format>
        <dc:type
           rdf:resource="http://purl.org/dc/dcmitype/StillImage" />
        <dc:title></dc:title>
      </cc:Work>
    </rdf:RDF>
  </metadata>
  <g
     transform="translate(-84.205957,-157.97339)"
     id="layer1"
     inkscape:groupmode="layer"
     inkscape:label="Layer 1">
    <path
       id="use56"
       d="m 85.453447,160.07903 c 0.15051,0 0.31012,-0.0875 0.47883,-0.26181 0.0903,-0.0903 0.13581,-0.16872 0.13581,-0.23522 0,-0.0784 -0.0728,-0.11761 -0.21701,-0.11761 -0.16871,0 -0.31082,0.0756 -0.42493,0.22612 -0.0602,0.0721 -0.0903,0.14771 -0.0903,0.22611 0,0.10851 0.0392,0.16241 0.1176,0.16241 m -0.15401,-1.97902 c 0.0119,0 0.042,-0.003 0.0903,-0.009 0.27162,0 0.56073,0.0903 0.86805,0.27091 0.0357,0.0245 0.0539,0.0364 0.0539,0.0364 0.17501,-0.28352 0.30732,-0.42493 0.39762,-0.42493 0.19321,0.10851 0.31922,0.22612 0.37942,0.35282 0.0301,0.0602 0.0756,0.18621 0.13581,0.37942 0.0483,-0.0119 0.0966,-0.0182 0.14491,-0.0182 0.50613,0 0.98776,0.31012 1.44559,0.93106 0.54814,0.71684 0.82255,1.69271 0.82255,2.92828 0,0.27652 -0.0119,0.52713 -0.0364,0.74975 -0.38082,0 -3.43231,0 -3.81384,0 0.0126,-0.40393 0.15961,-0.78615 0.44313,-1.14807 0.0301,-0.0476 0.0721,-0.10221 0.12671,-0.16241 0.22261,-0.28282 0.35842,-0.49983 0.40673,-0.65034 0.0238,-0.0784 0.042,-0.15961 0.0539,-0.24432 -0.39763,0.15681 -0.69584,0.38853 -0.89466,0.69585 -0.0903,0.15051 -0.18971,0.30731 -0.29821,0.46973 -0.0301,0.0483 -0.0756,0.0728 -0.13581,0.0728 -0.15051,0 -0.22542,-0.0938 -0.22542,-0.28072 -0.0609,0.0784 -0.13021,0.11761 -0.20791,0.11761 0,0 -0.0602,-0.0147 -0.18131,-0.0448 -0.25902,-0.0665 -0.44243,-0.18062 -0.55094,-0.34372 -0.0364,-0.0539 -0.0756,-0.12671 -0.1176,-0.21702 0.042,-0.25902 0.24991,-0.77424 0.62374,-1.545 0.27091,-0.55443 0.43962,-0.95205 0.50613,-1.19287 0.006,-0.0546 0.009,-0.13301 0.009,-0.23521 0,-0.0847 -0.0154,-0.24712 -0.0455,-0.48793 m -0.54184,3.1719 c -0.14491,0 -0.24151,0.0637 -0.28982,0.18971 -0.0119,0.0301 -0.0175,0.0602 -0.0175,0.0903 0,0.0245 0.009,0.0546 0.0266,0.091 0.15681,0 0.25341,-0.0665 0.28911,-0.19882 0.006,-0.0182 0.009,-0.0392 0.009,-0.0637 0,-0.0119 -0.006,-0.0483 -0.0175,-0.1085 m 4.43687,1.39168 c 0,-0.20021 0,-0.31152 0,-0.33392 0,-0.98216 -0.24991,-1.78651 -0.74975,-2.41305 -0.43402,-0.54254 -0.82884,-0.81345 -1.18377,-0.81345 0,0 -0.0364,-0.006 -0.1085,-0.0182 -0.0119,0.006 -0.021,0.0119 -0.0273,0.0182 -0.0784,0 -0.1176,0.0329 -0.1176,0.0994 0,0.0238 0.0182,0.0539 0.0546,0.0903 0.32482,0.0301 0.68044,0.26182 1.06617,0.69584 0.48793,0.56634 0.73224,1.38609 0.73224,2.45855 0,0 0,0.0175 0,0.0539 0,0.26531 0.0567,0.39762 0.17151,0.39762 0.0966,0 0.15051,-0.0784 0.16241,-0.23521"
       style="fill:#000000;fill-opacity:1;stroke-width:0.0700042" />
  </g>
</svg>
