<?xml version="1.0" encoding="UTF-8" standalone="no"?>
<svg
   xmlns:dc="http://purl.org/dc/elements/1.1/"
   xmlns:cc="http://creativecommons.org/ns#"
   xmlns:rdf="http://www.w3.org/1999/02/22-rdf-syntax-ns#"
   xmlns:svg="http://www.w3.org/2000/svg"
   xmlns="http://www.w3.org/2000/svg"
   xmlns:sodipodi="http://sodipodi.sourceforge.net/DTD/sodipodi-0.dtd"
   xmlns:inkscape="http://www.inkscape.org/namespaces/inkscape"
   sodipodi:docname="pawn-black.svg"
   inkscape:version="1.0 (4035a4f, 2020-05-01)"
   id="svg250"
   version="1.1"
   viewBox="0 0 3.8775401 5.3140201"
   height="5.3140202mm"
   width="3.8775401mm">
  <defs
     id="defs244" />
  <sodipodi:namedview
     inkscape:window-maximized="0"
     inkscape:window-y="23"
     inkscape:window-x="0"
     inkscape:window-height="855"
     inkscape:window-width="1252"
     fit-margin-bottom="0"
     fit-margin-right="0"
     fit-margin-left="0"
     fit-margin-top="0"
     showgrid="false"
     inkscape:document-rotation="0"
     inkscape:current-layer="layer1"
     inkscape:document-units="mm"
     inkscape:cy="-52.736819"
     inkscape:cx="171.92604"
     inkscape:zoom="0.35"
     inkscape:pageshadow="2"
     inkscape:pageopacity="0.0"
     borderopacity="1.0"
     bordercolor="#666666"
     pagecolor="#ffffff"
     id="base" />
  <metadata
     id="metadata247">
    <rdf:RDF>
      <cc:Work
         rdf:about="">
        <dc:format>image/svg+xml</dc:format>
        <dc:type
           rdf:resource="http://purl.org/dc/dcmitype/StillImage" />
        <dc:title></dc:title>
      </cc:Work>
    </rdf:RDF>
  </metadata>
  <g
     transform="translate(-60.344568,-162.11995)"
     id="layer1"
     inkscape:groupmode="layer"
     inkscape:label="Layer 1">
    <path
       id="use64"
       d="m 60.353568,167.43397 c -0.006,-0.0721 -0.009,-0.21352 -0.009,-0.42493 0,-0.75885 0.23521,-1.32238 0.70495,-1.68991 0.1386,-0.1141 0.30731,-0.21981 0.50613,-0.31641 -0.23452,-0.0721 -0.39413,-0.24992 -0.47883,-0.53274 -0.0238,-0.091 -0.0364,-0.18411 -0.0364,-0.28071 0,-0.40323 0.20792,-0.68955 0.62374,-0.85825 -0.1085,-0.18062 -0.16241,-0.35283 -0.16241,-0.51524 0,-0.27092 0.13231,-0.47323 0.39763,-0.60553 0.1204,-0.0602 0.24991,-0.0903 0.38852,-0.0903 0.30102,0 0.52433,0.11761 0.66854,0.35212 0.0665,0.10291 0.0994,0.21702 0.0994,0.34372 0,0.17501 -0.0511,0.34652 -0.15331,0.51524 0.22261,0.0903 0.38222,0.21071 0.47883,0.36122 0.0966,0.16311 0.14491,0.32832 0.14491,0.49703 0,0.31362 -0.10851,0.55163 -0.32552,0.71404 -0.0546,0.0483 -0.11481,0.0812 -0.18061,0.0994 0.55443,0.28352 0.91285,0.65384 1.07526,1.11167 0.0847,0.25341 0.12671,0.55163 0.12671,0.89465 0,0.21142 -0.003,0.35283 -0.009,0.42493 -0.25762,0 -1.54359,0 -3.85934,0"
       style="fill:#000000;fill-opacity:1;stroke-width:0.0700042" />
  </g>
</svg>
