<?xml version="1.0" encoding="UTF-8" standalone="no"?>
<svg
   xmlns:dc="http://purl.org/dc/elements/1.1/"
   xmlns:cc="http://creativecommons.org/ns#"
   xmlns:rdf="http://www.w3.org/1999/02/22-rdf-syntax-ns#"
   xmlns:svg="http://www.w3.org/2000/svg"
   xmlns="http://www.w3.org/2000/svg"
   xmlns:sodipodi="http://sodipodi.sourceforge.net/DTD/sodipodi-0.dtd"
   xmlns:inkscape="http://www.inkscape.org/namespaces/inkscape"
   sodipodi:docname="pawn-white.svg"
   inkscape:version="1.0 (4035a4f, 2020-05-01)"
   id="svg250"
   version="1.1"
   viewBox="0 0 3.87754 5.3140201"
   height="5.3140202mm"
   width="3.8775401mm">
  <defs
     id="defs244" />
  <sodipodi:namedview
     inkscape:window-maximized="0"
     inkscape:window-y="23"
     inkscape:window-x="0"
     inkscape:window-height="855"
     inkscape:window-width="1252"
     fit-margin-bottom="0"
     fit-margin-right="0"
     fit-margin-left="0"
     fit-margin-top="0"
     showgrid="false"
     inkscape:document-rotation="0"
     inkscape:current-layer="layer1"
     inkscape:document-units="mm"
     inkscape:cy="5.0375168"
     inkscape:cx="20.713264"
     inkscape:zoom="22.778681"
     inkscape:pageshadow="2"
     inkscape:pageopacity="0.0"
     borderopacity="1.0"
     bordercolor="#666666"
     pagecolor="#ffffff"
     id="base" />
  <metadata
     id="metadata247">
    <rdf:RDF>
      <cc:Work
         rdf:about="">
        <dc:format>image/svg+xml</dc:format>
        <dc:type
           rdf:resource="http://purl.org/dc/dcmitype/StillImage" />
        <dc:title></dc:title>
      </cc:Work>
    </rdf:RDF>
  </metadata>
  <g
     transform="translate(-56.359434,-163.72337)"
     id="layer1"
     inkscape:groupmode="layer"
     inkscape:label="Layer 1">
    <path
       id="use112"
       d="m 59.911364,168.67616 c 0,-0.63284 -0.17151,-1.10607 -0.51523,-1.41899 -0.11411,-0.10851 -0.25622,-0.21142 -0.42493,-0.30732 -0.23451,-0.13861 -0.35212,-0.26532 -0.35212,-0.37943 0,-0.0609 0.0602,-0.1267 0.18061,-0.19881 0.18691,-0.1029 0.29822,-0.22331 0.33462,-0.36192 0.0119,-0.0539 0.0182,-0.12041 0.0182,-0.19881 0,-0.27722 -0.1421,-0.49423 -0.42492,-0.65034 -0.0161,-0.0119 -0.14631,-0.10571 -0.16241,-0.11761 -0.0308,-0.0301 -0.0455,-0.0637 -0.0455,-0.0994 0,-0.1029 0.0364,-0.20511 0.1085,-0.30732 0.0483,-0.0665 0.0721,-0.1449 0.0721,-0.23521 0,-0.15681 -0.084,-0.27092 -0.25272,-0.34302 -0.0546,-0.0182 -0.10851,-0.0273 -0.16311,-0.0273 -0.16871,0 -0.28912,0.0749 -0.36122,0.22611 -0.0245,0.0476 -0.0364,0.0959 -0.0364,0.14421 0,0.0546 0.0392,0.15681 0.1176,0.30732 0.0483,0.0847 0.0693,0.16241 0.063,0.23521 0,0.0721 -0.0693,0.14421 -0.20722,0.21702 -0.27721,0.16241 -0.41582,0.37942 -0.41582,0.65034 0,0.23521 0.11761,0.42213 0.35212,0.56073 0.11481,0.0777 0.17151,0.14421 0.17151,0.19881 0,0.11411 -0.11691,0.24082 -0.35212,0.37943 -0.43403,0.26462 -0.71125,0.58734 -0.83165,0.96676 -0.0658,0.21071 -0.0994,0.46413 -0.0994,0.75955 0.21562,0 1.29088,0 3.2265,0 m -3.54292,0.36122 c -0.006,-0.0721 -0.009,-0.21071 -0.009,-0.41583 0,-0.74134 0.21701,-1.29508 0.65104,-1.6626 0.14491,-0.12041 0.32832,-0.23801 0.55163,-0.35282 -0.22961,-0.0721 -0.38292,-0.24712 -0.46132,-0.52434 -0.0301,-0.0903 -0.0448,-0.1834 -0.0448,-0.28001 0,-0.40323 0.20442,-0.69304 0.61394,-0.86736 -0.0959,-0.175 -0.14421,-0.34652 -0.14421,-0.51523 0,-0.27721 0.13581,-0.48233 0.40673,-0.61463 0.1141,-0.0539 0.23801,-0.0812 0.37032,-0.0812 0.30732,0 0.53343,0.11761 0.67764,0.35212 0.0665,0.10291 0.0994,0.21702 0.0994,0.34372 0,0.16241 -0.0539,0.33462 -0.16241,0.51523 0.41582,0.16872 0.62374,0.45783 0.62374,0.86736 0,0.31922 -0.11761,0.56073 -0.35283,0.72314 -0.0483,0.0364 -0.1022,0.063 -0.16241,0.0812 0.54254,0.27721 0.89466,0.63004 1.05707,1.05776 0.10291,0.26462 0.15401,0.58384 0.15401,0.95766 0,0.19882 -0.003,0.33742 -0.009,0.41583 -0.25762,0 -1.5436,0 -3.85934,0"
       style="fill:#000000;fill-opacity:1;stroke-width:0.0700042" />
  </g>
</svg>
