<?xml version="1.0" encoding="UTF-8" standalone="no"?>
<svg
   xmlns:dc="http://purl.org/dc/elements/1.1/"
   xmlns:cc="http://creativecommons.org/ns#"
   xmlns:rdf="http://www.w3.org/1999/02/22-rdf-syntax-ns#"
   xmlns:svg="http://www.w3.org/2000/svg"
   xmlns="http://www.w3.org/2000/svg"
   xmlns:sodipodi="http://sodipodi.sourceforge.net/DTD/sodipodi-0.dtd"
   xmlns:inkscape="http://www.inkscape.org/namespaces/inkscape"
   sodipodi:docname="queen-white.svg"
   inkscape:version="1.0 (4035a4f, 2020-05-01)"
   id="svg250"
   version="1.1"
   viewBox="0 0 6.2630801 5.8383497"
   height="5.8383498mm"
   width="6.2630801mm">
  <defs
     id="defs244" />
  <sodipodi:namedview
     inkscape:window-maximized="0"
     inkscape:window-y="23"
     inkscape:window-x="0"
     inkscape:window-height="855"
     inkscape:window-width="1252"
     fit-margin-bottom="0"
     fit-margin-right="0"
     fit-margin-left="0"
     fit-margin-top="0"
     showgrid="false"
     inkscape:document-rotation="0"
     inkscape:current-layer="layer1"
     inkscape:document-units="mm"
     inkscape:cy="9.4432743"
     inkscape:cx="15.324546"
     inkscape:zoom="22.778681"
     inkscape:pageshadow="2"
     inkscape:pageopacity="0.0"
     borderopacity="1.0"
     bordercolor="#666666"
     pagecolor="#ffffff"
     id="base" />
  <metadata
     id="metadata247">
    <rdf:RDF>
      <cc:Work
         rdf:about="">
        <dc:format>image/svg+xml</dc:format>
        <dc:type
           rdf:resource="http://purl.org/dc/dcmitype/StillImage" />
        <dc:title></dc:title>
      </cc:Work>
    </rdf:RDF>
  </metadata>
  <g
     transform="translate(-57.785199,-162.55768)"
     id="layer1"
     inkscape:groupmode="layer"
     inkscape:label="Layer 1">
    <path
       id="use80"
       d="m 60.713389,166.36272 c 0.23872,0 0.37103,0 0.39763,0 0.0903,0 0.19881,0.003 0.32552,0.009 0.0595,0.003 0.35772,0.0217 0.89465,0.0546 0.005,0 0.008,0 0.009,0 0.1085,0 0.1624,-0.0154 0.1624,-0.0455 0,-0.003 0,-0.0322 0,-0.0364 0,-0.18061 -0.40042,-0.29821 -1.20197,-0.35212 -0.14491,-0.0119 -0.27092,-0.0182 -0.37942,-0.0182 -0.59084,0 -1.04587,0.0602 -1.36509,0.18061 -0.14421,0.0546 -0.21631,0.11761 -0.21631,0.18971 0,0.004 0,0.0329 0,0.0364 0,0.0301 0.0539,0.0455 0.16241,0.0455 0.0805,-0.004 0.48443,-0.0259 1.21107,-0.0637 m 1.67171,0.40673 c -0.47603,-0.0602 -0.96396,-0.0903 -1.46379,-0.0903 -0.52434,0 -1.01227,0.0301 -1.46449,0.0903 0.0728,0.0602 0.1085,0.17781 0.1085,0.35282 0,0.11411 -0.0182,0.18341 -0.0539,0.20791 0.36122,-0.0665 0.83165,-0.0994 1.40989,-0.0994 0.57823,0 1.04796,0.0329 1.40988,0.0994 -0.0364,-0.0245 -0.0546,-0.0938 -0.0546,-0.20791 0,-0.17501 0.0364,-0.29262 0.10851,-0.35282 m -1.46379,0.77705 c -0.30732,0 -0.65104,0.0154 -1.03047,0.0455 -0.29541,0.0238 -0.44313,0.0931 -0.44313,0.20791 0,0.15051 0.49144,0.22612 1.4736,0.22612 0.98216,0 1.47289,-0.0756 1.47289,-0.22612 0,-0.0483 -0.0392,-0.0931 -0.11761,-0.13581 -0.22891,-0.0784 -0.68044,-0.1176 -1.35528,-0.1176 m 0,-4.7267 c -0.15051,0 -0.22612,0.0728 -0.22612,0.21702 0,0.15681 0.0756,0.23521 0.22612,0.23521 0.14421,0 0.21701,-0.0784 0.21701,-0.23521 0,-0.14421 -0.0728,-0.21702 -0.21701,-0.21702 m 0,-0.26181 c 0.21701,0 0.36752,0.0994 0.45153,0.29822 0.003,0.0119 0.0182,0.0721 0.0455,0.18061 0,0.0168 0,0.0252 0,0.0273 0,0.0364 -0.0245,0.11131 -0.0721,0.22611 -0.0847,0.24712 -0.1267,0.46063 -0.1267,0.64124 0,0.29542 0.0658,0.73225 0.19881,1.31048 0.32552,-0.68674 0.48793,-1.20477 0.48793,-1.55409 -0.006,-0.0392 -0.049,-0.35003 -0.0546,-0.38853 0,-0.21141 0.0938,-0.36192 0.28071,-0.45223 0.0658,-0.0357 0.13861,-0.0539 0.21701,-0.0539 0.21632,0 0.37033,0.0959 0.46063,0.28912 0.0364,0.0721 0.0539,0.14421 0.0539,0.21701 0,0.15681 -0.0539,0.28002 -0.16241,0.37033 -0.16241,0.16241 -0.24712,0.42772 -0.25272,0.79524 0,0.15681 0.0147,0.40953 0.0448,0.75955 0.39202,-0.40392 0.58733,-0.73224 0.58733,-0.98566 -0.004,-0.035 -0.0406,-0.31712 -0.0448,-0.35212 0,-0.19881 0.0903,-0.34652 0.27091,-0.44313 0.0721,-0.042 0.14771,-0.063 0.22612,-0.063 0.20441,0 0.35842,0.0931 0.46063,0.28002 0.003,0.0112 0.0217,0.0686 0.0546,0.17151 0,0.0329 0,0.0511 0,0.0546 0,0.24711 -0.13861,0.43403 -0.41582,0.56003 -0.0119,0.25902 -0.11131,0.76865 -0.29822,1.5275 -0.0126,0.0364 -0.021,0.0693 -0.0273,0.0994 0,0.0847 -0.0966,0.22891 -0.28911,0.43402 -0.25902,0.25902 -0.38853,0.46063 -0.38853,0.60554 0,0.0658 0.0721,0.24361 0.21702,0.53273 0.0238,0.0546 0.0357,0.13581 0.0357,0.24432 0,0.006 0,0.0567 0,0.063 -0.006,0.0182 -0.009,0.0392 -0.009,0.0637 0,7.9e-4 0,0.003 0,0.009 0.006,0.005 0.008,0.008 0.009,0.009 0,0.21631 -0.58104,0.33742 -1.74381,0.36122 -0.0784,0 -0.15401,0 -0.22611,0 -0.0252,-7.9e-4 -0.15191,-0.003 -0.37943,-0.009 -0.006,0 -0.008,0 -0.009,0 -0.56633,-0.0182 -0.99756,-0.0665 -1.29228,-0.14491 -0.18691,-0.0539 -0.28072,-0.12321 -0.28072,-0.20721 0.006,-0.006 0.006,-0.0427 0,-0.10851 -0.006,-0.0126 -0.006,-0.0245 0,-0.0364 0,-0.13861 0.0455,-0.29822 0.13581,-0.47883 0.0721,-0.14491 0.10851,-0.24432 0.10851,-0.29822 0,-0.0966 -0.0511,-0.21071 -0.15401,-0.34372 -0.0441,-0.0504 -0.39832,-0.45503 -0.44243,-0.50613 -0.0483,-0.0658 -0.0721,-0.12951 -0.0721,-0.18971 -0.18691,-0.76515 -0.29262,-1.26218 -0.31642,-1.4911 -0.006,-0.0483 -0.009,-0.0931 -0.009,-0.13581 -0.27722,-0.126 -0.41583,-0.31292 -0.41583,-0.56003 0,-0.19881 0.0903,-0.34652 0.27092,-0.44313 0.0784,-0.042 0.15681,-0.063 0.23521,-0.063 0.21071,0 0.36122,0.0966 0.45153,0.28912 0.0364,0.0665 0.0546,0.1386 0.0546,0.21701 -0.005,0.035 -0.0406,0.31712 -0.0455,0.35212 0,0.26532 0.19321,0.59364 0.57894,0.98566 0.0301,-0.26531 0.0448,-0.51873 0.0448,-0.75955 0,-0.33112 -0.0392,-0.55093 -0.11761,-0.65944 -0.0301,-0.0427 -0.0749,-0.0903 -0.13511,-0.1449 -0.1085,-0.0721 -0.16311,-0.19252 -0.16311,-0.36123 0,-0.21141 0.0994,-0.36472 0.29822,-0.46132 0.0665,-0.0301 0.13861,-0.0448 0.21701,-0.0448 0.21072,0 0.36193,0.0959 0.45223,0.28912 0.0357,0.0665 0.0539,0.13861 0.0539,0.21701 -0.004,0.0252 -0.0217,0.15191 -0.0539,0.37943 0,0.006 0,0.008 0,0.009 0,0.34302 0.16241,0.86175 0.48793,1.55409 0.12671,-0.54813 0.18972,-0.98496 0.18972,-1.31048 0,-0.24081 -0.0455,-0.46973 -0.13581,-0.68674 -0.0357,-0.084 -0.0539,-0.14421 -0.0539,-0.18061 0,-0.21071 0.0959,-0.36122 0.28912,-0.45153 0.0665,-0.0364 0.13861,-0.0546 0.21701,-0.0546 m 2.61187,1.11167 c -0.0966,0 -0.16591,0.0483 -0.20792,0.14491 -0.006,0.0238 -0.009,0.0476 -0.009,0.0721 0,0.12041 0.0539,0.19601 0.16241,0.22611 0.0182,0.006 0.0364,0.009 0.0546,0.009 0.15051,0 0.22541,-0.0784 0.22541,-0.23522 0,-0.14491 -0.0749,-0.21701 -0.22541,-0.21701 m -1.18378,-0.57824 c -0.1029,0 -0.17221,0.0511 -0.20791,0.15331 -10e-4,0.008 -0.008,0.0651 -0.009,0.0728 0,0.10781 0.0511,0.18062 0.15331,0.21632 0.0182,0.006 0.0392,0.009 0.0637,0.009 0.15611,0 0.23452,-0.0749 0.23452,-0.22541 0,-0.15121 -0.0784,-0.22612 -0.23452,-0.22612 m -2.87438,0 c -0.15051,0 -0.22611,0.0749 -0.22611,0.22612 0,0.15051 0.0756,0.22541 0.22611,0.22541 0.14491,0 0.21702,-0.0749 0.21702,-0.22541 0,-0.15121 -0.0721,-0.22612 -0.21702,-0.22612 m -1.18377,0.57824 c -0.15051,0 -0.22612,0.0721 -0.22612,0.21701 0,0.15681 0.0756,0.23522 0.22612,0.23522 0.14491,0 0.21701,-0.0784 0.21701,-0.23522 0,-0.10221 -0.0511,-0.17151 -0.15401,-0.20791 -0.0182,-0.006 -0.0392,-0.009 -0.063,-0.009 m 2.63006,0.57823 c -0.0847,0.53064 -0.19321,0.91286 -0.32552,1.14807 -0.009,0.0147 -0.0539,0.0868 -0.13581,0.21702 0,0.005 0,0.008 0,0.009 -0.0175,-0.0182 -0.0959,-0.10851 -0.23451,-0.27162 -0.17501,-0.20441 -0.35842,-0.59294 -0.55164,-1.16557 0.0119,0.084 0.0182,0.17151 0.0182,0.26181 0,0.28352 -0.0511,0.72035 -0.15331,1.31048 -0.32552,-0.19251 -0.64194,-0.49982 -0.94926,-0.92195 0.1022,0.51873 0.18061,0.85895 0.23521,1.02136 0.0357,0.12041 0.0812,0.18971 0.13511,0.20791 0.49423,-0.28281 1.14808,-0.42492 1.96152,-0.42492 0.81906,0 1.4729,0.14211 1.96083,0.42492 0.1085,-0.0357 0.22891,-0.44592 0.36192,-1.22927 -0.31362,0.43403 -0.62654,0.74135 -0.94016,0.92195 -0.10221,-0.52433 -0.15331,-0.93665 -0.15331,-1.23767 0,-0.0784 0.006,-0.19041 0.0175,-0.33462 -0.12041,0.36122 -0.25902,0.68394 -0.41582,0.96676 -0.084,0.12671 -0.17712,0.24711 -0.28002,0.36192 -0.0483,0.0483 -0.0784,0.084 -0.0903,0.10851 -0.0196,-0.0357 -0.17851,-0.31782 -0.19881,-0.35282 -0.006,-0.0238 -0.0147,-0.0483 -0.0273,-0.0721 -0.0476,-0.13301 -0.12601,-0.44873 -0.23452,-0.94926"
       style="fill:#000000;fill-opacity:1;stroke-width:0.0700042" />
  </g>
</svg>
