<?xml version="1.0" encoding="UTF-8" standalone="no"?>
<svg
   xmlns:dc="http://purl.org/dc/elements/1.1/"
   xmlns:cc="http://creativecommons.org/ns#"
   xmlns:rdf="http://www.w3.org/1999/02/22-rdf-syntax-ns#"
   xmlns:svg="http://www.w3.org/2000/svg"
   xmlns="http://www.w3.org/2000/svg"
   xmlns:sodipodi="http://sodipodi.sourceforge.net/DTD/sodipodi-0.dtd"
   xmlns:inkscape="http://www.inkscape.org/namespaces/inkscape"
   sodipodi:docname="queen-black.svg"
   inkscape:version="1.0 (4035a4f, 2020-05-01)"
   id="svg250"
   version="1.1"
   viewBox="0 0 6.2723899 5.8383508"
   height="5.8383508mm"
   width="6.2723899mm">
  <defs
     id="defs244" />
  <sodipodi:namedview
     inkscape:window-maximized="0"
     inkscape:window-y="23"
     inkscape:window-x="0"
     inkscape:window-height="855"
     inkscape:window-width="1252"
     fit-margin-bottom="0"
     fit-margin-right="0"
     fit-margin-left="0"
     fit-margin-top="0"
     showgrid="false"
     inkscape:document-rotation="0"
     inkscape:current-layer="layer1"
     inkscape:document-units="mm"
     inkscape:cy="433.89025"
     inkscape:cx="-133.86167"
     inkscape:zoom="0.35"
     inkscape:pageshadow="2"
     inkscape:pageopacity="0.0"
     borderopacity="1.0"
     bordercolor="#666666"
     pagecolor="#ffffff"
     id="base" />
  <metadata
     id="metadata247">
    <rdf:RDF>
      <cc:Work
         rdf:about="">
        <dc:format>image/svg+xml</dc:format>
        <dc:type
           rdf:resource="http://purl.org/dc/dcmitype/StillImage" />
        <dc:title></dc:title>
      </cc:Work>
    </rdf:RDF>
  </metadata>
  <g
     transform="translate(-141.2509,-33.366539)"
     id="layer1"
     inkscape:groupmode="layer"
     inkscape:label="Layer 1">
    <path
       id="use32"
       d="m 142.8958,38.255634 c 0,0.09661 0.0693,0.144909 0.20791,0.144909 0.0623,-0.0042 0.56074,-0.0406 0.62374,-0.0455 -7.9e-4,0 0.18061,-0.0084 0.54183,-0.0266 0.009,0 0.0546,0 0.13581,0 l 1.05707,0.0539 c 0.13021,0.0112 0.20231,0.0168 0.21701,0.0182 0.13861,0 0.20792,-0.0483 0.20792,-0.14491 0,-0.17431 -0.40393,-0.270916 -1.21108,-0.289117 -0.028,0 -0.25202,0 -0.28002,0 -0.68114,0 -1.13617,0.0511 -1.36508,0.154009 -0.0903,0.0357 -0.13511,0.08121 -0.13511,0.135108 M 141.76593,34.4782 c -0.11411,0 -0.18691,0.0574 -0.21701,0.17151 -0.006,0.0182 -0.009,0.0364 -0.009,0.0546 0,0.114107 0.0574,0.186911 0.17221,0.217013 0.0175,0.0056 0.0357,0.0091 0.0539,0.0091 0.14491,0 0.21701,-0.0756 0.21701,-0.226114 0,-0.150509 -0.0721,-0.226114 -0.21701,-0.226114 m 1.18377,-0.569135 c -0.15681,0 -0.23451,0.0749 -0.23451,0.225414 0,0.151209 0.0777,0.226114 0.23451,0.226114 0.14491,0 0.21701,-0.0749 0.21701,-0.226114 0,-0.15051 -0.0721,-0.225414 -0.21701,-0.225414 m 2.88348,0 c -0.10291,0 -0.17221,0.0511 -0.20791,0.153309 -0.001,0.0077 -0.008,0.0651 -0.009,0.07211 0,0.151209 0.0721,0.226114 0.21701,0.226114 0.15051,0 0.22542,-0.0749 0.22542,-0.226114 0,-0.15051 -0.0749,-0.225414 -0.22542,-0.225414 m 1.17467,0.569135 c -0.14491,0 -0.21701,0.07561 -0.21701,0.226114 0,0.150509 0.0721,0.226114 0.21701,0.226114 0.15051,0 0.22612,-0.0756 0.22612,-0.226114 0,-0.114807 -0.0574,-0.186912 -0.17221,-0.217013 -0.0182,-0.0063 -0.0357,-0.0091 -0.0539,-0.0091 m -0.65104,4.319968 c 0,0.16871 -0.31012,0.286317 -0.93036,0.352821 -0.0588,0.0035 -0.35072,0.021 -0.87715,0.0539 -0.0973,0 -0.15192,0 -0.16241,0 -0.73505,0 -1.29508,-0.063 -1.68081,-0.189712 -0.18691,-0.0546 -0.28072,-0.126708 -0.28072,-0.217013 0,-0.175011 0.0483,-0.373824 0.14491,-0.596437 0.0665,-0.132308 0.0994,-0.226114 0.0994,-0.280018 0,-0.114807 -0.13861,-0.337421 -0.41582,-0.669241 -0.15051,-0.174311 -0.23802,-0.294719 -0.26182,-0.361223 0,-0.0364 -0.0182,-0.117607 -0.0546,-0.244315 -0.0112,-0.0448 -0.10571,-0.406725 -0.11761,-0.451528 -0.0777,-0.295418 -0.12951,-0.608337 -0.15331,-0.940158 -0.27721,-0.114107 -0.41582,-0.298218 -0.41582,-0.550934 0,-0.217014 0.0994,-0.371023 0.29822,-0.461329 0.0665,-0.0301 0.1386,-0.0448 0.21701,-0.0448 0.19881,0 0.34652,0.09031 0.44313,0.270917 0.042,0.07841 0.063,0.15681 0.063,0.235215 -0.004,0.0343 -0.0406,0.308719 -0.0455,0.343021 0,0.271617 0.19321,0.602738 0.57894,0.994062 0.0301,-0.246416 0.0448,-0.505432 0.0448,-0.777048 0,-0.403225 -0.0721,-0.659441 -0.21702,-0.767948 -0.0119,-0.0119 -0.0238,-0.021 -0.0357,-0.0273 -0.1085,-0.0665 -0.1631,-0.183411 -0.1631,-0.352122 0,-0.223313 0.1029,-0.376623 0.30731,-0.461328 0.0665,-0.0301 0.13581,-0.0448 0.20792,-0.0448 0.21071,0 0.36192,0.09591 0.45223,0.289118 0.0357,0.0658 0.0539,0.138608 0.0539,0.217013 -0.006,0.0385 -0.0567,0.349322 -0.063,0.388524 0,0.337421 0.1659,0.852653 0.49703,1.544996 0.1267,-0.566335 0.18971,-0.999662 0.18971,-1.30138 0,-0.252716 -0.0455,-0.48443 -0.13581,-0.695844 -0.0357,-0.0784 -0.0539,-0.138608 -0.0539,-0.180611 0,-0.222614 0.0994,-0.376623 0.29822,-0.460628 0.0665,-0.0301 0.13581,-0.0455 0.20791,-0.0455 0.21072,0 0.35842,0.09941 0.44243,0.298218 0.0301,0.06651 0.0455,0.135809 0.0455,0.207913 0,0.0119 -0.0511,0.171511 -0.15331,0.47883 -0.0245,0.07841 -0.0364,0.211413 -0.0364,0.397625 0,0.301718 0.063,0.735045 0.18971,1.30138 0.32552,-0.686742 0.48793,-1.201974 0.48793,-1.544996 -0.004,-0.0252 -0.0217,-0.151909 -0.0539,-0.379423 0,-0.0056 0,-0.0084 0,-0.0091 0,-0.223313 0.10221,-0.376623 0.30732,-0.461328 0.0658,-0.0301 0.13511,-0.0448 0.20792,-0.0448 0.21071,0 0.36122,0.09591 0.45152,0.289118 0.0364,0.0658 0.0539,0.138608 0.0539,0.217013 0,0.168711 -0.0539,0.289118 -0.16241,0.361223 -0.16871,0.108507 -0.25271,0.373823 -0.25271,0.795249 0,0.265316 0.0147,0.521532 0.0448,0.767948 0.38572,-0.391325 0.57823,-0.722445 0.57823,-0.994062 -0.004,-0.0343 -0.0406,-0.308719 -0.0448,-0.343021 0,-0.210713 0.0966,-0.361923 0.28912,-0.452228 0.0665,-0.0357 0.13861,-0.0539 0.21701,-0.0539 0.21702,0 0.37033,0.09661 0.46063,0.289118 0.004,0.0112 0.0217,0.06861 0.0546,0.171511 0,0.0273 0,0.042 0,0.0455 0,0.240815 -0.13861,0.424926 -0.41582,0.550934 -0.0364,0.415826 -0.13861,0.924757 -0.30732,1.527495 -0.0119,0.0483 -0.0182,0.0847 -0.0182,0.108506 0,0.042 -0.0448,0.111307 -0.13581,0.207913 -0.0105,0.0133 -0.0973,0.121808 -0.10781,0.135809 -0.28982,0.33112 -0.43402,0.560034 -0.43402,0.686742 0,0.0357 0.0721,0.222614 0.21701,0.560035 0.0238,0.120407 0.0357,0.226114 0.0357,0.31642 m -1.96082,-5.16912 c -0.11481,0 -0.18692,0.0567 -0.21702,0.171511 -0.006,0.0182 -0.009,0.0357 -0.009,0.0539 0,0.114807 0.0574,0.186912 0.17151,0.217014 0.0182,0.0063 0.0364,0.0091 0.0546,0.0091 0.14421,0 0.21702,-0.0756 0.21702,-0.226114 0,-0.108507 -0.0511,-0.180611 -0.15401,-0.217014 -0.0182,-0.0056 -0.0392,-0.0084 -0.063,-0.0084 m 1.6269,3.524018 c 0,-0.192512 -0.54254,-0.289118 -1.6269,-0.289118 -1.09067,0 -1.63601,0.09941 -1.63601,0.298219 0,0.0847 0.0784,0.126708 0.23522,0.126708 0.18061,0 0.40672,-0.0147 0.67764,-0.0448 0.0392,-0.0014 0.23521,-0.0077 0.58734,-0.0182 0.0868,0 0.1351,0 0.14491,0 0.16871,0 0.48793,0.0147 0.95766,0.0448 0.0441,0.0021 0.39902,0.0161 0.44312,0.0182 0.14421,0 0.21702,-0.0448 0.21702,-0.135809"
       style="fill:#000000;fill-opacity:1;stroke-width:0.0700042" />
  </g>
</svg>
